_____________________________________________________________________________ 
       ooooooo        ooooooo       ooo       ooooooo      ooooo      ooo
    ooo       ooo  ooo       ooo    ooo    ooo       ooo   oooooo     ooo 
    ooo       ooo  ooo      ooo     ooo    ooo       ooo   ooo ooo    ooo 
    ooo       ooo  ooo     ooo      ooo    ooo       ooo   ooo  ooo   ooo 
    ooo       ooo  oooooooooo       ooo    ooo       ooo   ooo   ooo  ooo
    ooo       ooo  ooo     ooo      ooo    ooo       ooo   ooo    ooo ooo
    ooo       ooo  ooo      ooo     ooo    ooo       ooo   ooo     oooooo
       ooooooo     ooo       ooo    ooo       ooooooo      ooo      ooooo
          
                                                 
                        ooooooo ooooooo         ooooooo       
                      ooo     ooo     ooo     ooo
                      ooo     ooo     ooo     ooo
                      ooo     ooo     ooo     ooooooooo
                      ooo     ooo     ooo     ooooooooo
                      ooo     ooo     ooo     ooo
                      ooo     ooo     ooo     ooo
                      ooo     ooo     ooo       ooooooo
______________________________________________________________________________

KEEP LOOKING FORWARD TO FUTURE RELEASES.......Please seed as long as you can!!

General
Complete name                    : PARADE Magazine Goes Behind the Scenes with Taylor Swift.mp4
Format                           : MPEG-4
Format profile                   : Base Media / Version 2
Codec ID                         : mp42
File size                        : 105 MiB
Duration                         : 2mn 44s
Overall bit rate                 : 5 342 Kbps
Encoded date                     : UTC 2012-11-19 13:54:49
Tagged date                      : UTC 2012-11-19 13:54:49

Video
ID                               : 1
Format                           : AVC
Format/Info                      : Advanced Video Codec
Format profile                   : High@L4.0
Format settings, CABAC           : Yes
Format settings, ReFrames        : 1 frame
Codec ID                         : avc1
Codec ID/Info                    : Advanced Video Coding
Duration                         : 2mn 44s
Bit rate mode                    : Variable
Bit rate                         : 5 148 Kbps
Maximum bit rate                 : 9 688 Kbps
Width                            : 1 920 pixels
Height                           : 1 080 pixels
Display aspect ratio             : 16:9
Frame rate mode                  : Constant
Frame rate                       : 23.976 fps
Color space                      : YUV
Chroma subsampling               : 4:2:0
Bit depth                        : 8 bits
Scan type                        : Progressive
Bits/(Pixel*Frame)               : 0.104
Stream size                      : 101 MiB (96%)
Tagged date                      : UTC 2012-11-19 13:54:49

Audio
ID                               : 2
Format                           : AAC
Format/Info                      : Advanced Audio Codec
Format version                   : Version 4
Format profile                   : LC
Format settings, SBR             : No
Codec ID                         : 40
Duration                         : 2mn 44s
Bit rate mode                    : Variable
Bit rate                         : 192 Kbps
Maximum bit rate                 : 204 Kbps
Channel(s)                       : 2 channels
Channel positions                : Front: L R
Sampling rate                    : 44.1 KHz
Stream size                      : 3.78 MiB (4%)
Encoded date                     : UTC 2012-11-19 13:54:49
Tagged date                      : UTC 2012-11-19 13:54:49



--------------The Most Important Things In Life Aren't Free--------------